<svg width="287" height="296" viewBox="0 0 287 296" fill="none" xmlns="http://www.w3.org/2000/svg">
<path d="M45 102H286.524V181.288H277.375V202.025L256.638 181.288H45V102Z" fill="#5CE82B"/>
<path d="M279.815 109.721H51.7087V173.151H279.815V109.721Z" fill="white"/>
<path d="M179.879 128.24H70.0519V131.573H179.879V128.24Z" fill="white"/>
<path d="M261.537 131.426H69.7687V143.294H261.537V131.426Z" fill="#0F89A3"/>
<path d="M261.284 151.3H70.0519V154.633H261.284V151.3Z" fill="#5CE82B"/>
<path d="M241.524 0H0V79.2879H9.14868V100.025L29.8853 79.2879H241.524V0Z" fill="#5CE82B"/>
<path d="M234.815 7.72121H6.70898V71.1517H234.815V7.72121Z" fill="white"/>
<path d="M136.799 21.8629H26.8601V29.9834H136.799V21.8629Z" fill="#0F89A3"/>
<path d="M218.301 38.3799H26.882V41.7129H218.301V38.3799Z" fill="#5CE82B"/>
<path d="M218.114 49.9097H26.882V53.2427H218.114V49.9097Z" fill="#5CE82B"/>
<path d="M31.1561 238.193H37.6245L44.4562 254.86H44.7469L51.5787 238.193H58.0471V263H52.9596V246.853H52.7537L46.3338 262.879H42.8694L36.4495 246.793H36.2436V263H31.1561V238.193ZM77.7519 249.7L73.0278 249.991C72.9471 249.587 72.7735 249.223 72.507 248.9C72.2405 248.569 71.8892 248.307 71.4532 248.113C71.0252 247.911 70.5124 247.81 69.9148 247.81C69.1153 247.81 68.441 247.98 67.8919 248.319C67.3428 248.65 67.0682 249.094 67.0682 249.651C67.0682 250.096 67.2459 250.471 67.6012 250.778C67.9565 251.085 68.5662 251.331 69.4303 251.517L72.7977 252.195C74.6066 252.567 75.9552 253.164 76.8435 253.988C77.7317 254.812 78.1759 255.894 78.1759 257.234C78.1759 258.454 77.8165 259.524 77.0978 260.444C76.3872 261.365 75.4101 262.083 74.1665 262.6C72.9309 263.109 71.5056 263.363 69.8906 263.363C67.4276 263.363 65.4653 262.851 64.0036 261.825C62.5501 260.791 61.6981 259.386 61.4478 257.61L66.5231 257.343C66.6766 258.094 67.048 258.668 67.6375 259.063C68.2271 259.451 68.9821 259.645 69.9027 259.645C70.8071 259.645 71.5339 259.471 72.083 259.124C72.6402 258.769 72.9229 258.312 72.9309 257.755C72.9229 257.287 72.725 256.903 72.3374 256.604C71.9498 256.297 71.3522 256.063 70.5447 255.902L67.3226 255.26C65.5057 254.896 64.153 254.267 63.2647 253.37C62.3845 252.474 61.9444 251.331 61.9444 249.942C61.9444 248.747 62.2674 247.717 62.9135 246.853C63.5676 245.989 64.4841 245.323 65.6631 244.855C66.8502 244.386 68.2392 244.152 69.83 244.152C72.1799 244.152 74.0292 244.649 75.3778 245.642C76.7344 246.635 77.5258 247.988 77.7519 249.7ZM89.8074 270.365C88.1358 270.365 86.7025 270.135 85.5073 269.674C84.3202 269.222 83.3754 268.604 82.6729 267.821C81.9703 267.038 81.514 266.157 81.3041 265.18L86.0766 264.538C86.222 264.91 86.4521 265.257 86.7671 265.58C87.082 265.903 87.4979 266.162 88.0147 266.355C88.5396 266.557 89.1776 266.658 89.9286 266.658C91.051 266.658 91.9757 266.384 92.7024 265.834C93.4373 265.293 93.8047 264.385 93.8047 263.109V259.705H93.5867C93.3606 260.222 93.0214 260.711 92.5692 261.171C92.117 261.631 91.5356 262.007 90.8249 262.297C90.1143 262.588 89.2664 262.734 88.2812 262.734C86.8841 262.734 85.6123 262.41 84.4656 261.764C83.327 261.11 82.4185 260.113 81.7401 258.773C81.0699 257.424 80.7348 255.72 80.7348 253.661C80.7348 251.553 81.078 249.793 81.7644 248.38C82.4508 246.966 83.3633 245.909 84.5019 245.206C85.6486 244.503 86.9043 244.152 88.2691 244.152C89.3108 244.152 90.1829 244.33 90.8855 244.685C91.588 245.032 92.1533 245.468 92.5813 245.993C93.0174 246.51 93.3525 247.019 93.5867 247.52H93.7805V244.394H98.9043V263.182C98.9043 264.764 98.5167 266.089 97.7415 267.155C96.9662 268.221 95.8922 269.02 94.5194 269.553C93.1547 270.094 91.584 270.365 89.8074 270.365ZM89.9164 258.857C90.7482 258.857 91.4508 258.651 92.0241 258.24C92.6055 257.82 93.0497 257.222 93.3565 256.447C93.6715 255.664 93.829 254.727 93.829 253.637C93.829 252.546 93.6755 251.602 93.3687 250.802C93.0618 249.995 92.6177 249.369 92.0362 248.925C91.4548 248.481 90.7482 248.258 89.9164 248.258C89.0685 248.258 88.3539 248.489 87.7724 248.949C87.191 249.401 86.7509 250.031 86.4521 250.839C86.1533 251.646 86.0039 252.579 86.0039 253.637C86.0039 254.711 86.1533 255.639 86.4521 256.423C86.759 257.198 87.1991 257.799 87.7724 258.227C88.3539 258.647 89.0685 258.857 89.9164 258.857ZM116.565 245.327C116.468 244.35 116.052 243.591 115.317 243.05C114.583 242.509 113.585 242.238 112.326 242.238C111.47 242.238 110.747 242.359 110.157 242.602C109.568 242.836 109.116 243.163 108.801 243.583C108.494 244.003 108.34 244.479 108.34 245.012C108.324 245.456 108.417 245.844 108.619 246.175C108.829 246.506 109.116 246.793 109.479 247.035C109.842 247.269 110.262 247.475 110.739 247.653C111.215 247.822 111.724 247.968 112.265 248.089L114.494 248.622C115.576 248.864 116.569 249.187 117.474 249.591C118.378 249.995 119.161 250.491 119.824 251.081C120.486 251.67 120.998 252.365 121.362 253.164C121.733 253.964 121.923 254.88 121.931 255.914C121.923 257.432 121.535 258.748 120.768 259.863C120.009 260.969 118.911 261.829 117.474 262.443C116.044 263.048 114.32 263.351 112.301 263.351C110.299 263.351 108.554 263.044 107.068 262.431C105.591 261.817 104.436 260.908 103.604 259.705C102.78 258.494 102.348 256.996 102.308 255.211H107.383C107.44 256.043 107.678 256.738 108.098 257.295C108.526 257.844 109.095 258.26 109.806 258.542C110.525 258.817 111.336 258.954 112.241 258.954C113.129 258.954 113.9 258.825 114.554 258.567C115.217 258.308 115.729 257.949 116.093 257.489C116.456 257.028 116.638 256.499 116.638 255.902C116.638 255.345 116.472 254.876 116.141 254.497C115.818 254.117 115.342 253.794 114.712 253.528C114.09 253.261 113.327 253.019 112.422 252.801L109.721 252.122C107.63 251.614 105.978 250.818 104.767 249.736C103.556 248.654 102.954 247.197 102.962 245.363C102.954 243.861 103.354 242.549 104.161 241.427C104.977 240.304 106.095 239.428 107.517 238.798C108.938 238.168 110.553 237.853 112.362 237.853C114.203 237.853 115.81 238.168 117.183 238.798C118.564 239.428 119.638 240.304 120.405 241.427C121.172 242.549 121.568 243.849 121.592 245.327H116.565ZM133.769 263.363C131.863 263.363 130.224 262.96 128.851 262.152C127.486 261.336 126.436 260.206 125.701 258.76C124.975 257.315 124.611 255.651 124.611 253.77C124.611 251.864 124.979 250.192 125.713 248.755C126.456 247.31 127.51 246.183 128.875 245.376C130.24 244.56 131.863 244.152 133.744 244.152C135.368 244.152 136.789 244.447 138.008 245.036C139.228 245.626 140.193 246.454 140.903 247.52C141.614 248.585 142.006 249.837 142.078 251.275H137.209C137.071 250.346 136.708 249.599 136.119 249.034C135.537 248.46 134.774 248.174 133.829 248.174C133.03 248.174 132.331 248.392 131.734 248.828C131.144 249.256 130.684 249.882 130.353 250.705C130.022 251.529 129.856 252.526 129.856 253.697C129.856 254.884 130.018 255.894 130.341 256.725C130.672 257.557 131.136 258.191 131.734 258.627C132.331 259.063 133.03 259.281 133.829 259.281C134.419 259.281 134.948 259.16 135.416 258.918C135.892 258.676 136.284 258.324 136.591 257.864C136.906 257.396 137.112 256.834 137.209 256.18H142.078C141.997 257.602 141.61 258.853 140.915 259.935C140.229 261.009 139.28 261.849 138.069 262.455C136.857 263.061 135.424 263.363 133.769 263.363ZM150.542 252.244V263H145.382V238.193H150.397V247.677H150.615C151.035 246.579 151.713 245.719 152.65 245.097C153.587 244.467 154.762 244.152 156.175 244.152C157.467 244.152 158.593 244.435 159.554 245C160.523 245.557 161.274 246.361 161.807 247.411C162.348 248.452 162.615 249.7 162.607 251.153V263H157.447V252.074C157.455 250.927 157.164 250.035 156.574 249.397C155.993 248.759 155.177 248.44 154.128 248.44C153.425 248.44 152.803 248.59 152.262 248.888C151.729 249.187 151.309 249.623 151.002 250.197C150.704 250.762 150.55 251.444 150.542 252.244ZM175.147 263.363C173.233 263.363 171.586 262.976 170.205 262.201C168.832 261.417 167.774 260.311 167.031 258.882C166.288 257.444 165.917 255.744 165.917 253.782C165.917 251.868 166.288 250.188 167.031 248.743C167.774 247.297 168.82 246.171 170.168 245.363C171.525 244.556 173.116 244.152 174.941 244.152C176.168 244.152 177.311 244.35 178.369 244.746C179.435 245.133 180.363 245.719 181.155 246.502C181.954 247.285 182.576 248.271 183.02 249.458C183.464 250.637 183.686 252.018 183.686 253.6V255.018H167.976V251.82H178.829C178.829 251.077 178.668 250.419 178.345 249.845C178.022 249.272 177.573 248.824 177 248.501C176.435 248.17 175.777 248.004 175.026 248.004C174.242 248.004 173.548 248.186 172.942 248.549C172.345 248.904 171.876 249.385 171.537 249.991C171.198 250.588 171.024 251.254 171.016 251.989V255.03C171.016 255.95 171.186 256.746 171.525 257.416C171.872 258.086 172.361 258.603 172.991 258.966C173.621 259.33 174.367 259.511 175.232 259.511C175.805 259.511 176.33 259.431 176.806 259.269C177.283 259.108 177.691 258.865 178.03 258.542C178.369 258.219 178.627 257.824 178.805 257.355L183.577 257.67C183.335 258.817 182.839 259.818 182.088 260.674C181.345 261.522 180.384 262.184 179.205 262.661C178.034 263.129 176.681 263.363 175.147 263.363ZM193.91 263.303C192.497 263.303 191.217 262.939 190.07 262.213C188.931 261.478 188.027 260.4 187.357 258.978C186.695 257.549 186.363 255.797 186.363 253.721C186.363 251.59 186.707 249.817 187.393 248.404C188.079 246.983 188.992 245.921 190.131 245.218C191.277 244.507 192.533 244.152 193.898 244.152C194.939 244.152 195.808 244.33 196.502 244.685C197.205 245.032 197.77 245.468 198.198 245.993C198.634 246.51 198.965 247.019 199.191 247.52H199.349V238.193H204.497V263H199.409V260.02H199.191C198.949 260.537 198.606 261.05 198.162 261.559C197.725 262.059 197.156 262.475 196.454 262.806C195.759 263.137 194.911 263.303 193.91 263.303ZM195.545 259.197C196.377 259.197 197.079 258.97 197.653 258.518C198.234 258.058 198.678 257.416 198.985 256.592C199.3 255.769 199.458 254.804 199.458 253.697C199.458 252.591 199.304 251.63 198.997 250.814C198.69 249.999 198.246 249.369 197.665 248.925C197.083 248.481 196.377 248.258 195.545 248.258C194.697 248.258 193.983 248.489 193.401 248.949C192.82 249.409 192.38 250.047 192.081 250.863C191.782 251.678 191.633 252.623 191.633 253.697C191.633 254.779 191.782 255.736 192.081 256.568C192.388 257.392 192.828 258.038 193.401 258.506C193.983 258.966 194.697 259.197 195.545 259.197ZM220.671 255.078V244.394H225.831V263H220.876V259.62H220.683C220.263 260.711 219.564 261.587 218.587 262.249C217.618 262.911 216.435 263.242 215.038 263.242C213.794 263.242 212.7 262.96 211.755 262.394C210.811 261.829 210.072 261.026 209.539 259.984C209.014 258.942 208.747 257.694 208.739 256.241V244.394H213.899V255.32C213.907 256.419 214.202 257.287 214.784 257.925C215.365 258.563 216.144 258.882 217.121 258.882C217.743 258.882 218.325 258.74 218.866 258.458C219.407 258.167 219.843 257.739 220.174 257.174C220.513 256.608 220.679 255.91 220.671 255.078ZM235.118 238.193V263H229.958V238.193H235.118ZM247.731 263.363C245.817 263.363 244.17 262.976 242.789 262.201C241.416 261.417 240.358 260.311 239.615 258.882C238.872 257.444 238.501 255.744 238.501 253.782C238.501 251.868 238.872 250.188 239.615 248.743C240.358 247.297 241.404 246.171 242.753 245.363C244.109 244.556 245.7 244.152 247.525 244.152C248.753 244.152 249.895 244.35 250.953 244.746C252.019 245.133 252.948 245.719 253.739 246.502C254.539 247.285 255.16 248.271 255.605 249.458C256.049 250.637 256.271 252.018 256.271 253.6V255.018H240.56V251.82H251.413C251.413 251.077 251.252 250.419 250.929 249.845C250.606 249.272 250.158 248.824 249.584 248.501C249.019 248.17 248.361 248.004 247.61 248.004C246.827 248.004 246.132 248.186 245.527 248.549C244.929 248.904 244.461 249.385 244.121 249.991C243.782 250.588 243.609 251.254 243.601 251.989V255.03C243.601 255.95 243.77 256.746 244.109 257.416C244.457 258.086 244.945 258.603 245.575 258.966C246.205 259.33 246.952 259.511 247.816 259.511C248.389 259.511 248.914 259.431 249.391 259.269C249.867 259.108 250.275 258.865 250.614 258.542C250.953 258.219 251.212 257.824 251.389 257.355L256.162 257.67C255.92 258.817 255.423 259.818 254.672 260.674C253.929 261.522 252.968 262.184 251.789 262.661C250.618 263.129 249.265 263.363 247.731 263.363Z" fill="white"/>
<path d="M31.3088 291.047H29.4061L33.6813 279.167H35.7523L40.0275 291.047H38.1248L34.7661 281.325H34.6733L31.3088 291.047ZM31.6278 286.395H37.8V287.903H31.6278V286.395ZM45.1962 294.574C44.4884 294.574 43.8793 294.482 43.3689 294.296C42.8623 294.11 42.4485 293.865 42.1275 293.559C41.8065 293.254 41.5667 292.919 41.4082 292.556L42.899 291.941C43.0034 292.111 43.1426 292.291 43.3167 292.48C43.4945 292.674 43.7343 292.838 44.036 292.973C44.3415 293.109 44.734 293.176 45.2136 293.176C45.871 293.176 46.4143 293.016 46.8436 292.695C47.2729 292.378 47.4875 291.871 47.4875 291.175V289.423H47.3773C47.2729 289.613 47.1221 289.823 46.9248 290.055C46.7315 290.288 46.4646 290.489 46.1243 290.659C45.784 290.829 45.3412 290.914 44.7959 290.914C44.092 290.914 43.4578 290.75 42.8932 290.421C42.3324 290.088 41.8877 289.599 41.559 288.953C41.2341 288.304 41.0717 287.505 41.0717 286.558C41.0717 285.61 41.2322 284.798 41.5532 284.121C41.878 283.444 42.3228 282.926 42.8874 282.566C43.452 282.203 44.092 282.021 44.8075 282.021C45.3605 282.021 45.8072 282.114 46.1475 282.3C46.4878 282.481 46.7527 282.694 46.9422 282.938C47.1356 283.181 47.2845 283.396 47.3889 283.582H47.5165V282.137H49.2162V291.245C49.2162 292.01 49.0383 292.639 48.6825 293.13C48.3267 293.621 47.8452 293.985 47.2381 294.221C46.6348 294.456 45.9541 294.574 45.1962 294.574ZM45.1787 289.475C45.6776 289.475 46.0992 289.359 46.4433 289.127C46.7914 288.891 47.0544 288.555 47.2323 288.118C47.414 287.677 47.5049 287.149 47.5049 286.534C47.5049 285.935 47.416 285.407 47.2381 284.951C47.0602 284.494 46.7991 284.139 46.4549 283.883C46.1108 283.624 45.6854 283.495 45.1787 283.495C44.6567 283.495 44.2216 283.63 43.8735 283.901C43.5255 284.168 43.2625 284.531 43.0846 284.991C42.9106 285.451 42.8236 285.966 42.8236 286.534C42.8236 287.118 42.9125 287.631 43.0904 288.072C43.2683 288.512 43.5313 288.857 43.8793 289.104C44.2313 289.352 44.6644 289.475 45.1787 289.475ZM55.3826 291.227C54.5047 291.227 53.7486 291.04 53.1144 290.665C52.484 290.286 51.9968 289.754 51.6526 289.069C51.3122 288.381 51.1421 287.575 51.1421 286.65C51.1421 285.738 51.3122 284.933 51.6526 284.237C51.9968 283.541 52.4763 282.998 53.0912 282.607C53.71 282.216 54.4331 282.021 55.2607 282.021C55.7635 282.021 56.2508 282.104 56.7226 282.271C57.1944 282.437 57.6178 282.698 57.993 283.054C58.3681 283.41 58.6639 283.872 58.8805 284.44C59.0971 285.005 59.2054 285.691 59.2054 286.5V287.114H52.1224V285.815H57.5057C57.5057 285.359 57.4129 284.955 57.2272 284.603C57.0416 284.247 56.7806 283.966 56.4441 283.761C56.1115 283.557 55.7209 283.454 55.2723 283.454C54.7851 283.454 54.3597 283.574 53.9961 283.814C53.6365 284.05 53.358 284.359 53.1608 284.742C52.9674 285.121 52.8708 285.533 52.8708 285.977V286.993C52.8708 287.588 52.9752 288.095 53.184 288.512C53.3967 288.93 53.6926 289.249 54.0715 289.47C54.4505 289.686 54.8933 289.794 55.4 289.794C55.7287 289.794 56.0284 289.748 56.2991 289.655C56.5698 289.559 56.8038 289.415 57.001 289.226C57.1982 289.036 57.3491 288.802 57.4535 288.524L59.0951 288.82C58.9637 289.303 58.7277 289.727 58.3874 290.09C58.051 290.45 57.6275 290.73 57.117 290.931C56.6104 291.129 56.0323 291.227 55.3826 291.227ZM62.8643 285.757V291.047H61.1298V282.137H62.7947V283.587H62.9049C63.1099 283.116 63.4308 282.737 63.8678 282.45C64.3087 282.164 64.8637 282.021 65.5327 282.021C66.1399 282.021 66.6716 282.149 67.128 282.404C67.5843 282.655 67.9382 283.031 68.1895 283.529C68.4409 284.028 68.5666 284.645 68.5666 285.38V291.047H66.8321V285.589C66.8321 284.943 66.6639 284.438 66.3274 284.075C65.991 283.707 65.5288 283.524 64.941 283.524C64.5388 283.524 64.1811 283.611 63.8678 283.785C63.5585 283.959 63.3129 284.214 63.1311 284.55C62.9532 284.883 62.8643 285.285 62.8643 285.757ZM74.2283 291.221C73.509 291.221 72.867 291.038 72.3024 290.67C71.7416 290.299 71.3007 289.771 70.9798 289.087C70.6626 288.398 70.5041 287.573 70.5041 286.61C70.5041 285.647 70.6646 284.823 70.9856 284.139C71.3104 283.454 71.7552 282.93 72.3198 282.566C72.8844 282.203 73.5244 282.021 74.2399 282.021C74.7929 282.021 75.2376 282.114 75.5741 282.3C75.9144 282.481 76.1774 282.694 76.363 282.938C76.5525 283.181 76.6995 283.396 76.8039 283.582H76.9083V279.167H78.6428V291.047H76.9489V289.661H76.8039C76.6995 289.851 76.5486 290.067 76.3514 290.311C76.158 290.554 75.8912 290.767 75.5509 290.949C75.2106 291.131 74.7697 291.221 74.2283 291.221ZM74.6111 289.742C75.11 289.742 75.5315 289.611 75.8757 289.348C76.2238 289.081 76.4868 288.712 76.6647 288.24C76.8464 287.768 76.9373 287.219 76.9373 286.592C76.9373 285.974 76.8484 285.432 76.6705 284.968C76.4926 284.504 76.2315 284.142 75.8873 283.883C75.5431 283.624 75.1177 283.495 74.6111 283.495C74.0891 283.495 73.654 283.63 73.3059 283.901C72.9579 284.171 72.6949 284.541 72.517 285.009C72.343 285.477 72.256 286.004 72.256 286.592C72.256 287.188 72.3449 287.724 72.5228 288.199C72.7007 288.675 72.9637 289.052 73.3117 289.33C73.6637 289.605 74.0968 289.742 74.6111 289.742ZM83.7113 291.245C83.1467 291.245 82.6362 291.14 82.1799 290.931C81.7235 290.719 81.3619 290.411 81.0951 290.009C80.8321 289.607 80.7006 289.114 80.7006 288.53C80.7006 288.027 80.7973 287.613 80.9907 287.288C81.1841 286.964 81.4451 286.706 81.7738 286.517C82.1025 286.327 82.4699 286.184 82.876 286.088C83.282 285.991 83.6958 285.917 84.1174 285.867C84.6511 285.805 85.0842 285.755 85.4168 285.716C85.7494 285.674 85.9911 285.606 86.1419 285.513C86.2927 285.421 86.3681 285.27 86.3681 285.061V285.02C86.3681 284.514 86.225 284.121 85.9389 283.843C85.6566 283.564 85.235 283.425 84.6743 283.425C84.0903 283.425 83.6301 283.555 83.2937 283.814C82.9611 284.069 82.731 284.353 82.6033 284.666L80.9733 284.295C81.1666 283.754 81.449 283.317 81.8202 282.984C82.1953 282.648 82.6265 282.404 83.1138 282.253C83.6011 282.099 84.1135 282.021 84.6511 282.021C85.0069 282.021 85.3839 282.064 85.7822 282.149C86.1844 282.23 86.5596 282.381 86.9076 282.601C87.2595 282.822 87.5477 283.137 87.772 283.547C87.9963 283.953 88.1084 284.481 88.1084 285.13V291.047H86.4145V289.829H86.3449C86.2328 290.054 86.0646 290.274 85.8403 290.491C85.6159 290.707 85.3278 290.887 84.9759 291.03C84.624 291.173 84.2025 291.245 83.7113 291.245ZM84.0884 289.852C84.5679 289.852 84.9778 289.758 85.3182 289.568C85.6624 289.379 85.9234 289.131 86.1013 288.826C86.2831 288.516 86.3739 288.186 86.3739 287.834V286.685C86.3121 286.747 86.1922 286.805 86.0143 286.859C85.8403 286.909 85.6411 286.954 85.4168 286.993C85.1925 287.027 84.974 287.06 84.7613 287.091C84.5486 287.118 84.3707 287.141 84.2276 287.161C83.8911 287.203 83.5837 287.275 83.3053 287.375C83.0307 287.476 82.8102 287.621 82.6439 287.811C82.4815 287.996 82.4003 288.244 82.4003 288.553C82.4003 288.982 82.5589 289.307 82.876 289.528C83.1931 289.744 83.5972 289.852 84.0884 289.852ZM90.4186 291.047V282.137H92.0835V283.587H92.1937C92.3793 283.096 92.6829 282.713 93.1044 282.439C93.526 282.16 94.0307 282.021 94.6185 282.021C95.214 282.021 95.7129 282.16 96.1151 282.439C96.5212 282.717 96.8209 283.1 97.0143 283.587H97.1071C97.3198 283.112 97.6582 282.733 98.1222 282.45C98.5863 282.164 99.1393 282.021 99.7813 282.021C100.59 282.021 101.249 282.275 101.759 282.781C102.274 283.288 102.531 284.052 102.531 285.072V291.047H100.796V285.235C100.796 284.632 100.632 284.195 100.303 283.924C99.9747 283.653 99.5821 283.518 99.1258 283.518C98.5612 283.518 98.1222 283.692 97.809 284.04C97.4957 284.384 97.3391 284.827 97.3391 285.368V291.047H95.6104V285.125C95.6104 284.641 95.4596 284.253 95.158 283.959C94.8563 283.665 94.4638 283.518 93.9804 283.518C93.6517 283.518 93.3481 283.605 93.0696 283.779C92.7951 283.949 92.5727 284.187 92.4025 284.492C92.2362 284.798 92.1531 285.152 92.1531 285.554V291.047H90.4186ZM108.696 291.227C107.818 291.227 107.062 291.04 106.428 290.665C105.797 290.286 105.31 289.754 104.966 289.069C104.626 288.381 104.455 287.575 104.455 286.65C104.455 285.738 104.626 284.933 104.966 284.237C105.31 283.541 105.79 282.998 106.404 282.607C107.023 282.216 107.746 282.021 108.574 282.021C109.077 282.021 109.564 282.104 110.036 282.271C110.508 282.437 110.931 282.698 111.306 283.054C111.681 283.41 111.977 283.872 112.194 284.44C112.41 285.005 112.519 285.691 112.519 286.5V287.114H105.436V285.815H110.819C110.819 285.359 110.726 284.955 110.541 284.603C110.355 284.247 110.094 283.966 109.757 283.761C109.425 283.557 109.034 283.454 108.586 283.454C108.098 283.454 107.673 283.574 107.309 283.814C106.95 284.05 106.671 284.359 106.474 284.742C106.281 285.121 106.184 285.533 106.184 285.977V286.993C106.184 287.588 106.288 288.095 106.497 288.512C106.71 288.93 107.006 289.249 107.385 289.47C107.764 289.686 108.207 289.794 108.713 289.794C109.042 289.794 109.342 289.748 109.612 289.655C109.883 289.559 110.117 289.415 110.314 289.226C110.512 289.036 110.662 288.802 110.767 288.524L112.408 288.82C112.277 289.303 112.041 289.727 111.701 290.09C111.364 290.45 110.941 290.73 110.43 290.931C109.924 291.129 109.346 291.227 108.696 291.227ZM116.178 285.757V291.047H114.443V282.137H116.108V283.587H116.218C116.423 283.116 116.744 282.737 117.181 282.45C117.622 282.164 118.177 282.021 118.846 282.021C119.453 282.021 119.985 282.149 120.441 282.404C120.898 282.655 121.251 283.031 121.503 283.529C121.754 284.028 121.88 284.645 121.88 285.38V291.047H120.145V285.589C120.145 284.943 119.977 284.438 119.641 284.075C119.304 283.707 118.842 283.524 118.254 283.524C117.852 283.524 117.494 283.611 117.181 283.785C116.872 283.959 116.626 284.214 116.444 284.55C116.267 284.883 116.178 285.285 116.178 285.757ZM128.365 282.137V283.529H123.498V282.137H128.365ZM124.804 280.002H126.538V288.431C126.538 288.768 126.588 289.021 126.689 289.191C126.789 289.357 126.919 289.472 127.077 289.533C127.24 289.591 127.416 289.62 127.605 289.62C127.745 289.62 127.866 289.611 127.971 289.591C128.075 289.572 128.156 289.557 128.214 289.545L128.528 290.978C128.427 291.016 128.284 291.055 128.098 291.094C127.913 291.136 127.681 291.16 127.402 291.163C126.946 291.171 126.521 291.09 126.126 290.92C125.732 290.75 125.413 290.487 125.169 290.131C124.925 289.775 124.804 289.328 124.804 288.791V280.002ZM133.941 291.227C133.106 291.227 132.377 291.036 131.754 290.653C131.132 290.27 130.648 289.734 130.304 289.046C129.96 288.358 129.788 287.553 129.788 286.633C129.788 285.709 129.96 284.9 130.304 284.208C130.648 283.516 131.132 282.978 131.754 282.595C132.377 282.213 133.106 282.021 133.941 282.021C134.777 282.021 135.506 282.213 136.128 282.595C136.751 282.978 137.234 283.516 137.579 284.208C137.923 284.9 138.095 285.709 138.095 286.633C138.095 287.553 137.923 288.358 137.579 289.046C137.234 289.734 136.751 290.27 136.128 290.653C135.506 291.036 134.777 291.227 133.941 291.227ZM133.947 289.771C134.489 289.771 134.937 289.628 135.293 289.342C135.649 289.056 135.912 288.675 136.082 288.199C136.256 287.724 136.343 287.199 136.343 286.627C136.343 286.059 136.256 285.537 136.082 285.061C135.912 284.581 135.649 284.197 135.293 283.906C134.937 283.616 134.489 283.471 133.947 283.471C133.402 283.471 132.949 283.616 132.59 283.906C132.234 284.197 131.969 284.581 131.795 285.061C131.625 285.537 131.54 286.059 131.54 286.627C131.54 287.199 131.625 287.724 131.795 288.199C131.969 288.675 132.234 289.056 132.59 289.342C132.949 289.628 133.402 289.771 133.947 289.771ZM147.69 291.221C146.97 291.221 146.328 291.038 145.764 290.67C145.203 290.299 144.762 289.771 144.441 289.087C144.124 288.398 143.965 287.573 143.965 286.61C143.965 285.647 144.126 284.823 144.447 284.139C144.772 283.454 145.216 282.93 145.781 282.566C146.346 282.203 146.986 282.021 147.701 282.021C148.254 282.021 148.699 282.114 149.035 282.3C149.376 282.481 149.639 282.694 149.824 282.938C150.014 283.181 150.161 283.396 150.265 283.582H150.37V279.167H152.104V291.047H150.41V289.661H150.265C150.161 289.851 150.01 290.067 149.813 290.311C149.619 290.554 149.353 290.767 149.012 290.949C148.672 291.131 148.231 291.221 147.69 291.221ZM148.072 289.742C148.571 289.742 148.993 289.611 149.337 289.348C149.685 289.081 149.948 288.712 150.126 288.24C150.308 287.768 150.399 287.219 150.399 286.592C150.399 285.974 150.31 285.432 150.132 284.968C149.954 284.504 149.693 284.142 149.349 283.883C149.004 283.624 148.579 283.495 148.072 283.495C147.55 283.495 147.115 283.63 146.767 283.901C146.419 284.171 146.156 284.541 145.978 285.009C145.804 285.477 145.717 286.004 145.717 286.592C145.717 287.188 145.806 287.724 145.984 288.199C146.162 288.675 146.425 289.052 146.773 289.33C147.125 289.605 147.558 289.742 148.072 289.742ZM158.42 291.227C157.542 291.227 156.786 291.04 156.152 290.665C155.521 290.286 155.034 289.754 154.69 289.069C154.35 288.381 154.179 287.575 154.179 286.65C154.179 285.738 154.35 284.933 154.69 284.237C155.034 283.541 155.514 282.998 156.128 282.607C156.747 282.216 157.47 282.021 158.298 282.021C158.801 282.021 159.288 282.104 159.76 282.271C160.232 282.437 160.655 282.698 161.03 283.054C161.405 283.41 161.701 283.872 161.918 284.44C162.134 285.005 162.243 285.691 162.243 286.5V287.114H155.16V285.815H160.543C160.543 285.359 160.45 284.955 160.265 284.603C160.079 284.247 159.818 283.966 159.481 283.761C159.149 283.557 158.758 283.454 158.31 283.454C157.822 283.454 157.397 283.574 157.033 283.814C156.674 284.05 156.395 284.359 156.198 284.742C156.005 285.121 155.908 285.533 155.908 285.977V286.993C155.908 287.588 156.012 288.095 156.221 288.512C156.434 288.93 156.73 289.249 157.109 289.47C157.488 289.686 157.931 289.794 158.437 289.794C158.766 289.794 159.066 289.748 159.336 289.655C159.607 289.559 159.841 289.415 160.038 289.226C160.236 289.036 160.386 288.802 160.491 288.524L162.132 288.82C162.001 289.303 161.765 289.727 161.425 290.09C161.088 290.45 160.665 290.73 160.154 290.931C159.648 291.129 159.07 291.227 158.42 291.227ZM168.49 291.047V282.137H170.155V283.587H170.265C170.451 283.096 170.755 282.713 171.176 282.439C171.598 282.16 172.102 282.021 172.69 282.021C173.286 282.021 173.785 282.16 174.187 282.439C174.593 282.717 174.892 283.1 175.086 283.587H175.179C175.391 283.112 175.73 282.733 176.194 282.45C176.658 282.164 177.211 282.021 177.853 282.021C178.661 282.021 179.321 282.275 179.831 282.781C180.345 283.288 180.603 284.052 180.603 285.072V291.047H178.868V285.235C178.868 284.632 178.704 284.195 178.375 283.924C178.046 283.653 177.654 283.518 177.197 283.518C176.633 283.518 176.194 283.692 175.881 284.04C175.567 284.384 175.411 284.827 175.411 285.368V291.047H173.682V285.125C173.682 284.641 173.531 284.253 173.23 283.959C172.928 283.665 172.535 283.518 172.052 283.518C171.723 283.518 171.42 283.605 171.141 283.779C170.867 283.949 170.644 284.187 170.474 284.492C170.308 284.798 170.225 285.152 170.225 285.554V291.047H168.49ZM186.767 291.227C185.89 291.227 185.134 291.04 184.499 290.665C183.869 290.286 183.382 289.754 183.037 289.069C182.697 288.381 182.527 287.575 182.527 286.65C182.527 285.738 182.697 284.933 183.037 284.237C183.382 283.541 183.861 282.998 184.476 282.607C185.095 282.216 185.818 282.021 186.646 282.021C187.148 282.021 187.636 282.104 188.107 282.271C188.579 282.437 189.003 282.698 189.378 283.054C189.753 283.41 190.049 283.872 190.265 284.44C190.482 285.005 190.59 285.691 190.59 286.5V287.114H183.507V285.815H188.891C188.891 285.359 188.798 284.955 188.612 284.603C188.427 284.247 188.165 283.966 187.829 283.761C187.496 283.557 187.106 283.454 186.657 283.454C186.17 283.454 185.745 283.574 185.381 283.814C185.021 284.05 184.743 284.359 184.546 284.742C184.352 285.121 184.256 285.533 184.256 285.977V286.993C184.256 287.588 184.36 288.095 184.569 288.512C184.782 288.93 185.077 289.249 185.456 289.47C185.835 289.686 186.278 289.794 186.785 289.794C187.114 289.794 187.413 289.748 187.684 289.655C187.955 289.559 188.189 289.415 188.386 289.226C188.583 289.036 188.734 288.802 188.838 288.524L190.48 288.82C190.349 289.303 190.113 289.727 189.772 290.09C189.436 290.45 189.012 290.73 188.502 290.931C187.995 291.129 187.417 291.227 186.767 291.227ZM194.249 285.757V291.047H192.515V282.137H194.18V283.587H194.29C194.495 283.116 194.816 282.737 195.253 282.45C195.694 282.164 196.249 282.021 196.918 282.021C197.525 282.021 198.057 282.149 198.513 282.404C198.969 282.655 199.323 283.031 199.574 283.529C199.826 284.028 199.951 284.645 199.951 285.38V291.047H198.217V285.589C198.217 284.943 198.049 284.438 197.712 284.075C197.376 283.707 196.914 283.524 196.326 283.524C195.924 283.524 195.566 283.611 195.253 283.785C194.943 283.959 194.698 284.214 194.516 284.55C194.338 284.883 194.249 285.285 194.249 285.757ZM208.954 284.313L207.382 284.591C207.317 284.39 207.212 284.198 207.069 284.017C206.93 283.835 206.74 283.686 206.501 283.57C206.261 283.454 205.961 283.396 205.602 283.396C205.11 283.396 204.7 283.506 204.372 283.727C204.043 283.943 203.879 284.224 203.879 284.568C203.879 284.866 203.989 285.105 204.209 285.287C204.43 285.469 204.786 285.618 205.277 285.734L206.692 286.059C207.512 286.248 208.123 286.54 208.525 286.935C208.927 287.329 209.129 287.841 209.129 288.472C209.129 289.006 208.974 289.481 208.664 289.899C208.359 290.313 207.932 290.637 207.382 290.873C206.837 291.109 206.205 291.227 205.486 291.227C204.488 291.227 203.674 291.015 203.043 290.589C202.413 290.16 202.026 289.551 201.883 288.762L203.56 288.507C203.664 288.944 203.879 289.274 204.204 289.499C204.528 289.719 204.952 289.829 205.474 289.829C206.042 289.829 206.497 289.711 206.837 289.475C207.177 289.236 207.348 288.944 207.348 288.599C207.348 288.321 207.243 288.087 207.034 287.898C206.829 287.708 206.514 287.565 206.089 287.468L204.581 287.138C203.749 286.948 203.134 286.646 202.736 286.233C202.341 285.819 202.144 285.295 202.144 284.661C202.144 284.135 202.291 283.674 202.585 283.28C202.879 282.886 203.285 282.578 203.803 282.358C204.322 282.133 204.915 282.021 205.584 282.021C206.547 282.021 207.305 282.23 207.858 282.648C208.411 283.061 208.777 283.616 208.954 284.313ZM213.629 291.245C213.064 291.245 212.553 291.14 212.097 290.931C211.641 290.719 211.279 290.411 211.012 290.009C210.749 289.607 210.618 289.114 210.618 288.53C210.618 288.027 210.715 287.613 210.908 287.288C211.101 286.964 211.362 286.706 211.691 286.517C212.02 286.327 212.387 286.184 212.793 286.088C213.199 285.991 213.613 285.917 214.035 285.867C214.568 285.805 215.001 285.755 215.334 285.716C215.667 285.674 215.908 285.606 216.059 285.513C216.21 285.421 216.285 285.27 216.285 285.061V285.02C216.285 284.514 216.142 284.121 215.856 283.843C215.574 283.564 215.152 283.425 214.592 283.425C214.008 283.425 213.547 283.555 213.211 283.814C212.878 284.069 212.648 284.353 212.521 284.666L210.891 284.295C211.084 283.754 211.366 283.317 211.737 282.984C212.113 282.648 212.544 282.404 213.031 282.253C213.518 282.099 214.031 282.021 214.568 282.021C214.924 282.021 215.301 282.064 215.7 282.149C216.102 282.23 216.477 282.381 216.825 282.601C217.177 282.822 217.465 283.137 217.689 283.547C217.914 283.953 218.026 284.481 218.026 285.13V291.047H216.332V289.829H216.262C216.15 290.054 215.982 290.274 215.758 290.491C215.533 290.707 215.245 290.887 214.893 291.03C214.541 291.173 214.12 291.245 213.629 291.245ZM214.006 289.852C214.485 289.852 214.895 289.758 215.235 289.568C215.58 289.379 215.841 289.131 216.019 288.826C216.2 288.516 216.291 288.186 216.291 287.834V286.685C216.229 286.747 216.109 286.805 215.932 286.859C215.758 286.909 215.558 286.954 215.334 286.993C215.11 287.027 214.891 287.06 214.679 287.091C214.466 287.118 214.288 287.141 214.145 287.161C213.808 287.203 213.501 287.275 213.223 287.375C212.948 287.476 212.728 287.621 212.561 287.811C212.399 287.996 212.318 288.244 212.318 288.553C212.318 288.982 212.476 289.307 212.793 289.528C213.11 289.744 213.514 289.852 214.006 289.852ZM224.072 294.574C223.364 294.574 222.755 294.482 222.244 294.296C221.738 294.11 221.324 293.865 221.003 293.559C220.682 293.254 220.442 292.919 220.284 292.556L221.775 291.941C221.879 292.111 222.018 292.291 222.192 292.48C222.37 292.674 222.61 292.838 222.911 292.973C223.217 293.109 223.61 293.176 224.089 293.176C224.747 293.176 225.29 293.016 225.719 292.695C226.148 292.378 226.363 291.871 226.363 291.175V289.423H226.253C226.148 289.613 225.998 289.823 225.8 290.055C225.607 290.288 225.34 290.489 225 290.659C224.66 290.829 224.217 290.914 223.671 290.914C222.968 290.914 222.333 290.75 221.769 290.421C221.208 290.088 220.763 289.599 220.435 288.953C220.11 288.304 219.947 287.505 219.947 286.558C219.947 285.61 220.108 284.798 220.429 284.121C220.754 283.444 221.198 282.926 221.763 282.566C222.328 282.203 222.968 282.021 223.683 282.021C224.236 282.021 224.683 282.114 225.023 282.3C225.363 282.481 225.628 282.694 225.818 282.938C226.011 283.181 226.16 283.396 226.264 283.582H226.392V282.137H228.092V291.245C228.092 292.01 227.914 292.639 227.558 293.13C227.202 293.621 226.721 293.985 226.114 294.221C225.51 294.456 224.83 294.574 224.072 294.574ZM224.054 289.475C224.553 289.475 224.975 289.359 225.319 289.127C225.667 288.891 225.93 288.555 226.108 288.118C226.29 287.677 226.38 287.149 226.38 286.534C226.38 285.935 226.291 285.407 226.114 284.951C225.936 284.494 225.675 284.139 225.33 283.883C224.986 283.624 224.561 283.495 224.054 283.495C223.532 283.495 223.097 283.63 222.749 283.901C222.401 284.168 222.138 284.531 221.96 284.991C221.786 285.451 221.699 285.966 221.699 286.534C221.699 287.118 221.788 287.631 221.966 288.072C222.144 288.512 222.407 288.857 222.755 289.104C223.107 289.352 223.54 289.475 224.054 289.475ZM234.258 291.227C233.38 291.227 232.624 291.04 231.99 290.665C231.36 290.286 230.872 289.754 230.528 289.069C230.188 288.381 230.018 287.575 230.018 286.65C230.018 285.738 230.188 284.933 230.528 284.237C230.872 283.541 231.352 282.998 231.967 282.607C232.585 282.216 233.309 282.021 234.136 282.021C234.639 282.021 235.126 282.104 235.598 282.271C236.07 282.437 236.493 282.698 236.868 283.054C237.244 283.41 237.539 283.872 237.756 284.44C237.973 285.005 238.081 285.691 238.081 286.5V287.114H230.998V285.815H236.381C236.381 285.359 236.288 284.955 236.103 284.603C235.917 284.247 235.656 283.966 235.32 283.761C234.987 283.557 234.596 283.454 234.148 283.454C233.661 283.454 233.235 283.574 232.872 283.814C232.512 284.05 232.234 284.359 232.036 284.742C231.843 285.121 231.746 285.533 231.746 285.977V286.993C231.746 287.588 231.851 288.095 232.06 288.512C232.272 288.93 232.568 289.249 232.947 289.47C233.326 289.686 233.769 289.794 234.275 289.794C234.604 289.794 234.904 289.748 235.175 289.655C235.445 289.559 235.679 289.415 235.877 289.226C236.074 289.036 236.225 288.802 236.329 288.524L237.971 288.82C237.839 289.303 237.603 289.727 237.263 290.09C236.927 290.45 236.503 290.73 235.993 290.931C235.486 291.129 234.908 291.227 234.258 291.227ZM241.74 285.757V291.047H240.005V282.137H241.67V283.587H241.78C241.985 283.116 242.306 282.737 242.743 282.45C243.184 282.164 243.739 282.021 244.408 282.021C245.015 282.021 245.547 282.149 246.003 282.404C246.46 282.655 246.814 283.031 247.065 283.529C247.316 284.028 247.442 284.645 247.442 285.38V291.047H245.708V285.589C245.708 284.943 245.539 284.438 245.203 284.075C244.867 283.707 244.404 283.524 243.817 283.524C243.414 283.524 243.057 283.611 242.743 283.785C242.434 283.959 242.188 284.214 242.007 284.55C241.829 284.883 241.74 285.285 241.74 285.757ZM256.445 284.313L254.873 284.591C254.807 284.39 254.703 284.198 254.56 284.017C254.421 283.835 254.231 283.686 253.991 283.57C253.752 283.454 253.452 283.396 253.092 283.396C252.601 283.396 252.191 283.506 251.862 283.727C251.534 283.943 251.369 284.224 251.369 284.568C251.369 284.866 251.48 285.105 251.7 285.287C251.92 285.469 252.276 285.618 252.767 285.734L254.183 286.059C255.003 286.248 255.614 286.54 256.016 286.935C256.418 287.329 256.619 287.841 256.619 288.472C256.619 289.006 256.464 289.481 256.155 289.899C255.85 290.313 255.422 290.637 254.873 290.873C254.328 291.109 253.695 291.227 252.976 291.227C251.978 291.227 251.164 291.015 250.534 290.589C249.904 290.16 249.517 289.551 249.374 288.762L251.05 288.507C251.155 288.944 251.369 289.274 251.694 289.499C252.019 289.719 252.442 289.829 252.965 289.829C253.533 289.829 253.987 289.711 254.328 289.475C254.668 289.236 254.838 288.944 254.838 288.599C254.838 288.321 254.734 288.087 254.525 287.898C254.32 287.708 254.005 287.565 253.579 287.468L252.071 287.138C251.24 286.948 250.625 286.646 250.227 286.233C249.832 285.819 249.635 285.295 249.635 284.661C249.635 284.135 249.782 283.674 250.076 283.28C250.37 282.886 250.776 282.578 251.294 282.358C251.812 282.133 252.406 282.021 253.075 282.021C254.038 282.021 254.796 282.23 255.349 282.648C255.902 283.061 256.267 283.616 256.445 284.313Z" fill="#EBEBEB"/>
</svg>
